<?xml version="1.0" encoding="UTF-8" standalone="no"?>
<svg
   xmlns:dc="http://purl.org/dc/elements/1.1/"
   xmlns:cc="http://creativecommons.org/ns#"
   xmlns:rdf="http://www.w3.org/1999/02/22-rdf-syntax-ns#"
   xmlns:svg="http://www.w3.org/2000/svg"
   xmlns="http://www.w3.org/2000/svg"
   xmlns:sodipodi="http://sodipodi.sourceforge.net/DTD/sodipodi-0.dtd"
   xmlns:inkscape="http://www.inkscape.org/namespaces/inkscape"
   width="512"
   height="512"
   viewBox="0 0 1.024 1.024"
   version="1.1"
   id="svg8"
   sodipodi:docname="flag.svg"
   inkscape:version="0.92.4 (5da689c313, 2019-01-14)">
  <metadata
     id="metadata14">
    <rdf:RDF>
      <cc:Work
         rdf:about="">
        <dc:format>image/svg+xml</dc:format>
        <dc:type
           rdf:resource="http://purl.org/dc/dcmitype/StillImage" />
        <dc:title></dc:title>
      </cc:Work>
    </rdf:RDF>
  </metadata>
  <defs
     id="defs12" />
  <sodipodi:namedview
     pagecolor="#ffffff"
     bordercolor="#666666"
     borderopacity="1"
     objecttolerance="10"
     gridtolerance="10"
     guidetolerance="10"
     inkscape:pageopacity="0"
     inkscape:pageshadow="2"
     inkscape:window-width="1920"
     inkscape:window-height="1000"
     id="namedview10"
     showgrid="false"
     inkscape:zoom="0.6675088"
     inkscape:cx="540.88389"
     inkscape:cy="135.05885"
     inkscape:window-x="-11"
     inkscape:window-y="1609"
     inkscape:window-maximized="1"
     inkscape:current-layer="svg8" />
  <g
     id="g896">
    <g
       id="g887">
      <path
         style="fill:#ce2b37;stroke-width:500"
         d="M 341.33398 14.96875 L 341.33398 497.07031 A 256.00001 256.00001 0 0 0 512 256 A 256.00001 256.00001 0 0 0 341.33398 14.96875 z "
         transform="scale(0.002)"
         id="rect6" />
      <path
         style="fill:#009246;stroke-width:500"
         d="M 170.66602 14.929688 A 256.00001 256.00001 0 0 0 0 256 A 256.00001 256.00001 0 0 0 170.66602 497.03125 L 170.66602 14.929688 z "
         transform="scale(0.002)"
         id="rect2" />
      <path
         style="opacity:1;fill:#ffffff;fill-opacity:0.97802196;stroke:none;stroke-width:5;stroke-linejoin:miter;stroke-miterlimit:4;stroke-dasharray:none;stroke-dashoffset:0;stroke-opacity:1"
         d="M 256 0 A 256.00001 256.00001 0 0 0 170.66602 14.929688 L 170.66602 497.03125 A 256.00001 256.00001 0 0 0 256 512 A 256.00001 256.00001 0 0 0 341.33398 497.07031 L 341.33398 14.96875 A 256.00001 256.00001 0 0 0 256 0 z "
         transform="scale(0.002)"
         id="path815" />
    </g>
    <circle
       r="0.51099998"
       cy="0.51300007"
       cx="0.51100004"
       id="path889"
       style="opacity:1;fill:none;fill-opacity:1;stroke:#000000;stroke-width:0.002;stroke-linejoin:miter;stroke-miterlimit:4;stroke-dasharray:none;stroke-dashoffset:0;stroke-opacity:1" />
  </g>
</svg>
